<?xml version="1.0" encoding="utf-8"?>
<!-- Generator: Adobe Illustrator 24.0.2, SVG Export Plug-In . SVG Version: 6.00 Build 0)  -->
<svg version="1.1" id="Layer_1" xmlns="http://www.w3.org/2000/svg" xmlns:xlink="http://www.w3.org/1999/xlink" x="0px" y="0px"
	 viewBox="0 0 686.2 686.2" style="enable-background:new 0 0 686.2 686.2;" xml:space="preserve">
<style type="text/css">
	.st0{fill:#DE2626;}
	.st1{fill:#FFFFFF;}
</style>
<g>
	<path class="st0" d="M401,315.6h188.8c0,0,5.2-0.6,6.5,1.6c1.3,2.2,2.2,3.5,2.2,9.7c0,0,2.8,26.3,0,42.8c0,0-1.8,17.1-4,25.8
		s-4.1,19.3-10.6,34.2s-14.7,35.5-23,47.7c-8.2,12.2-24.7,37.4-39,49.3c-14.3,11.9-34.5,29.6-52.3,38.8
		c-17.7,9.2-31.4,16.2-47.5,21.2c-16.2,5.1-29.3,8.5-42.1,10.3c-12.8,1.7-46.3,3.6-64.3,1.6c-18.1-2.1-45.8-8.9-58.8-13.6
		c-13-4.8-32.3-13.3-49-23.6c-21.9-13.6-33.4-24.5-46.3-36.3c-13.1-12.1-18.8-20.3-20-21.9c-1.1-1.6-2.7-3.6-1-5.4
		c1.7-1.7,17.1-15.8,17.1-15.8l14.3-13.5c0,0,1.9-1.9,3.3-2.2c1.4-0.3,3.3-1.4,5.2,1s13.8,19.2,28.5,30.6
		c14.7,11.4,30.7,24.2,52.6,33.1c21.9,8.9,30.4,13.3,50.5,15c20.1,1.7,36,2.9,58.8-0.2c22.8-3,46.3-9.3,69.7-23.4
		c23.4-14.1,49.7-32.2,65.4-56.4s19.5-31.1,27.6-50.7s9-28.8,10.5-35c1.4-6,1.9-10.6,1.9-10.6l-50.5,0.3c0,0-2.1,14.4-7.9,29.1
		c-5.9,14.7-14.7,32-25.3,43.6c-10.6,11.6-29.1,29.3-50.5,39.9c-21.7,10.7-36.9,14.6-48.8,15.7c-11.9,1.1-27.7,1.3-45.5-1.4
		c-17.7-2.7-46.7-13.8-58.5-22.2c-11.7-8.4-33.6-26.1-42-39.1s-14.3-22-19.3-35.5c-5.1-13.5-7.6-20.9-8.2-24.7
		c-0.6-3.8-1.1-5.2-1.1-5.2H91.8c0,0-1.3,0.3-3.5-2.2s-1.9-4-2-12.1c-0.2-8.1,0-20.4,1.1-33c1-11.5,3-31.5,6.3-42.9
		s8.2-29.6,15.7-43.9c7.4-14.2,14.3-27.1,21.5-37.9c7.3-10.8,21.1-28.5,27.9-34.7c6.8-6.2,18.1-17.4,26.6-23.4
		c8.6-6,19.2-14.3,31.2-20.8s33.3-17,54.2-22.6c20.9-5.7,32.5-8.1,55.8-9.3c23.3-1.3,36-0.8,59.6,3.3c23.6,4.1,40.4,9.8,59.6,17.9
		s35.2,18.1,49.7,29c14.6,10.9,30.7,26.3,36.6,33.1c5.9,6.8,7.3,8.5,7.3,9.7c0,1.1,0.6,2.2-1.3,4c-1.9,1.7-28.4,29-28.4,29
		s-1.6,1.7-2.7,2.7c-1.1,1-2.2,0.9-3.5,0.5s0.1,0.8-5.5-5.6c-5.5-6.3-14-15-21.8-21.7s-14.2-11.6-21-16s-19.2-11.4-26.3-14.9
		c-7.1-3.5-9.8-4.8-19-7.9c-9.2-3.2-15.4-5.5-21.7-7c-6.3-1.6-13.2-2.6-22.7-3.2s-22.3-0.6-29.7-0.6c-7.4,0-15.1,0.4-24.2,1.5
		s-25.7,4.7-35.9,9.2c-10.1,4.4-28.3,12-38.5,18.3c-10.2,6.3-30.5,20.1-42.8,34.2C182,217,171,230.6,162.6,247.2
		c-8.4,16.6-17.3,35.5-19.6,46.9c-2.4,11.4-3.6,18.7-3.6,19.6s0,0.9,0,0.9l49,0.6c0,0,4.1-15.4,8.9-28.2c4.7-12.8,18.5-38,28.4-47.5
		c9.8-9.5,24.9-23.6,35.8-29.6c10.9-6,25.7-13.3,36.8-16.3c11.1-3,23.3-5.9,40.1-6.2c16.8-0.3,33.7,1.7,46.1,5.5s29.9,10.9,42.5,19
		c12.5,8.1,27.1,21.7,33.6,29.3c6.5,7.6,7.8,9.3,8.1,10.6c0.3,1.3,0.3,3.3-1.1,4.6c-1.4,1.3-29.8,30.6-29.8,30.6s-1.1,1.3-2.5,1.9
		s-2.7,1.7-4.4-1c-1.7-2.7-12.7-17.3-21.2-24.1c-8.6-6.8-19.5-14.1-31.1-18.4s-36.6-5.2-43.1-5.2s-15.2,0.5-26.1,4.6
		s-26.3,10.8-39.1,24.9c0,0-10.8,9.2-15.5,18.4c-4.8,9.2-10.6,18.9-12.5,26.8c-1.9,7.9-3.3,16.6-3,31.2c0.3,14.6,2.7,25.4,4.3,29.5
		c1.6,4.1,7.9,19.3,17.3,31.2c9.4,11.9,13.1,14.9,23,21.5c9.8,6.7,14.1,8.7,22.2,12.5s8.9,4.1,19.5,5.6c14.9,2.1,28.5,1.1,37.1-0.5
		c8.5-1.6,23.3-6.5,34.5-14.1s22.8-17.8,29.6-26.9c6.8-9.2,8.7-14.3,11.9-21.2c3.2-7,4.6-13.5,4.6-13.5h-87c0,0-2.2,0.2-3.6-0.8
		c-1.4-0.9-2.1-1.9-2.1-3.3c0-1.4,0.2-1.4,4.3-5.5c4.1-4.1,39.9-41.5,39.9-41.5s1.5-1.6,3-2.6C399,315.4,401,315.6,401,315.6z"/>
	<path class="st0" d="M343.1,0C153.6,0,0,153.6,0,343.1s153.6,343.1,343.1,343.1s343.1-153.6,343.1-343.1S532.6,0,343.1,0z
		 M343.1,634.9c-161.2,0-291.8-130.7-291.8-291.8C51.3,181.9,182,51.3,343.1,51.3c161.2,0,291.8,130.6,291.8,291.8
		C634.9,504.2,504.3,634.9,343.1,634.9z"/>
</g>
</svg>
