<?xml version="1.0" encoding="utf-8"?>
<!-- Generator: Adobe Illustrator 24.0.2, SVG Export Plug-In . SVG Version: 6.00 Build 0)  -->
<svg version="1.1" id="Layer_1" xmlns="http://www.w3.org/2000/svg" xmlns:xlink="http://www.w3.org/1999/xlink" x="0px" y="0px"
	 viewBox="0 0 1091.3 514.8" style="enable-background:new 0 0 1091.3 514.8;" xml:space="preserve">
<style type="text/css">
	.st0{fill:#DE2626;}
	.st1{fill:#FFFFFF;}
</style>
<g>
	<g>
		<path class="st1" d="M79.2,453.6c0,22.8-13.4,41.4-39.6,41.4C13.1,495,0,476,0,453.4c0-24.2,15.5-39.8,39.5-39.8
			C65.1,413.5,79.2,430.4,79.2,453.6z M10.9,454.1c0,19.4,11.3,32,28.8,32c17.3,0,28.6-12.7,28.6-32c0-19.2-11.3-31.6-28.8-31.6
			C19.9,422.5,10.9,437.5,10.9,454.1z"/>
		<path class="st1" d="M100,445.5c5-6.9,11.3-10.3,20.5-10.3c14.7,0,20,7.5,20,20.4V493h-9.9v-33.2c0-8.9-0.5-16.6-12.9-16.6
			c-12.9,0-17.1,9.2-17.1,20.3V493h-9.9v-56.2h9.3L100,445.5L100,445.5z"/>
		<path class="st1" d="M165.2,493.1h-10v-77.7h10V493.1z"/>
		<path class="st1" d="M190.5,426.7h-10v-11.3h10V426.7z M190.5,493.1h-10v-56.3h10V493.1z"/>
		<path class="st1" d="M214.6,445.5c5-6.9,11.3-10.3,20.5-10.3c14.7,0,20,7.5,20,20.4V493h-9.9v-33.2c0-8.9-0.5-16.6-12.9-16.6
			c-12.9,0-17.1,9.2-17.1,20.3V493h-9.9v-56.2h9.3V445.5L214.6,445.5z"/>
		<path class="st1" d="M294.5,494.9c-17.7,0-28.2-10.9-28.2-29.2c0-18.2,11.3-30.6,27.9-30.6c19.8,0,27.2,14.7,27.2,31v1.3h-45.1
			l-0.1,0.7c0,12,7.1,19.2,18.7,19.2c8.6,0,13.4-3.5,16.2-12h9.7C317.6,488.3,308.6,494.9,294.5,494.9z M293.9,442.8
			c-9.7,0-16.4,6.5-17.7,17.1h34.9C310.1,449.2,303.8,442.8,293.9,442.8z"/>
		<path class="st1" d="M412.8,438.2c-1.3-11.2-8.4-15.8-20.6-15.8c-11.9,0-18.7,4.7-18.7,12.9c0,8.7,9.6,10.6,22.4,13.1
			c13.5,2.6,30.7,6.5,30.7,22.9c0,17.2-16.4,23.6-32.2,23.6c-19.8,0-34.3-8.6-34.3-27.4h10.6c0.5,14.1,11.4,19,24.7,19
			c9.6,0,20.6-3.2,20.6-14.2c0-10-10.5-12-24.1-14.9c-13.4-2.8-28.8-4.9-28.8-21.3c0-15.9,15.1-22.2,30-22.2
			c17.6,0,29.7,7.6,30.3,24.3L412.8,438.2L412.8,438.2z"/>
		<path class="st1" d="M462.9,494.9c-17.7,0-28.3-10.9-28.3-29.2c0-18.2,11.3-30.6,27.9-30.6c19.8,0,27.2,14.7,27.2,31v1.3h-45.1
			l-0.1,0.7c0,12,7.1,19.2,18.7,19.2c8.6,0,13.4-3.5,16.2-12h9.6C486,488.3,477.1,494.9,462.9,494.9z M462.3,442.8
			c-9.6,0-16.4,6.5-17.7,17.1h34.9C478.6,449.2,472.2,442.8,462.3,442.8z"/>
		<path class="st1" d="M531,445.1c-1.1-0.1-1.5-0.1-2.6-0.1c-16.3,0-19.2,11.7-19.2,24.3v23.8h-9.9v-56.3h9.4v12.1
			c4.2-9.5,11.5-13.4,22.2-13.4L531,445.1L531,445.1z"/>
		<path class="st1" d="M543.1,436.8l17,47.2l16.5-47.2H587l-22,56.3h-10.6l-22.3-56.3H543.1z"/>
		<path class="st1" d="M605.9,426.7h-10v-11.3h10V426.7z M605.9,493.1h-10v-56.3h10V493.1z"/>
		<path class="st1" d="M646.1,494.7c-18.6,0-28.5-11.9-28.5-29c0-18.8,11.1-30.6,28.8-30.6c14.6,0,23.8,7.2,25.5,20h-10.2
			c-1.7-8-7-12.2-15.1-12.2c-11.4,0-18.6,8.5-18.6,22c0,13.7,6.8,22,17.9,22c9,0,14.9-5.1,16.4-14.4h10
			C670.6,486,661,494.7,646.1,494.7z"/>
		<path class="st1" d="M707.7,494.9c-17.7,0-28.3-10.9-28.3-29.2c0-18.2,11.3-30.6,27.9-30.6c19.8,0,27.2,14.7,27.2,31v1.3h-45.1
			l-0.1,0.7c0,12,7.1,19.2,18.7,19.2c8.6,0,13.4-3.5,16.2-12h9.6C730.8,488.3,721.8,494.9,707.7,494.9z M707.1,442.8
			c-9.6,0-16.4,6.5-17.7,17.1h34.9C723.4,449.2,717,442.8,707.1,442.8z"/>
		<path class="st1" d="M849.8,493.1h-7l-2.8-9.7c-7,8.1-15.2,11.6-26.7,11.6c-23.5,0-39.4-16.2-39.4-40c0-22.8,14.4-41.1,40.2-41.1
			c16.6,0,33.1,8.7,34.6,25.5H838c-1.6-10.1-11.2-16.9-23.9-16.9c-18,0-29.3,12.4-29.3,32.2c0,19.4,11.3,31.9,29.2,31.9
			c17.4,0,25.6-11.1,26-26.1h-26.5v-8.4h36.3L849.8,493.1L849.8,493.1z"/>
		<path class="st1" d="M895.2,445.1c-1.1-0.1-1.5-0.1-2.6-0.1c-16.3,0-19.2,11.7-19.2,24.3v23.8h-9.9v-56.3h9.4v12.1
			c4.2-9.5,11.5-13.4,22.2-13.4L895.2,445.1L895.2,445.1z"/>
		<path class="st1" d="M955,464.6c0,19.1-10.6,30.2-28.8,30.2c-18.4,0-29.3-11.1-29.3-29.7c0-18.5,11.3-30,29.4-30
			C944.4,435.1,955,445.9,955,464.6z M907.1,464.9c0,13.9,7.1,22,19.2,22c11.6,0,18.6-8.3,18.6-22.2c0-13.4-7.2-21.9-18.8-21.9
			C914.4,442.9,907.1,451.5,907.1,464.9z"/>
		<path class="st1" d="M1016,493.1h-9.2v-8.8c-5.2,7.1-11.9,10.4-20.7,10.4c-12.6,0-20-6.7-20-19.1v-38.8h9.9V473
			c0,8.1,2.4,13.5,12.6,13.5c13,0,17.6-8.7,17.6-20.3v-29.4h9.9v56.3H1016z"/>
		<path class="st1" d="M1039.6,444.7c4.6-7,11.4-9.7,20.2-9.7c16.7,0,27.3,11.3,27.3,29.6c0,18.2-10.5,29.9-26.8,29.9
			c-8.8,0-15-2.7-20.1-9.3v29.6h-9.9v-78h9.3V444.7L1039.6,444.7z M1039.8,464.7c0,13.6,7.2,21.9,18.8,21.9
			c11.3,0,18.3-8.4,18.3-21.9c0-13.6-7-21.9-18.6-21.9C1046.8,442.8,1039.8,451.1,1039.8,464.7z"/>
	</g>
	<path class="st1" d="M180.8,0.8c-32.4,0-62.6,8.1-90.5,24.3C61.8,41.6,39.7,63.8,23.8,91.6S0,149.8,0,182.9
		c0,51.1,17.4,94.2,52.4,129.5c34.9,35.2,77.9,52.8,129,52.8c50.5,0,92.9-17.6,127.3-52.7c34.4-35.1,51.6-77.9,51.6-128.4
		s-17.2-93.5-51.6-129.2C273.7,18.8,231.1,0.8,180.8,0.8z M262.3,266.5c-21.9,23.3-48.9,35-81.2,35c-27.7,0-52.2-8.7-73.6-26.2
		c-27.5-22.4-41.3-52.8-41.3-91.2c0-33.6,10.5-61.6,31.6-84.1c21.4-23.2,48.8-34.7,82.1-34.7c32.6,0,59.9,11.7,81.9,35
		c21.6,22.8,32.3,50.6,32.3,83.4C294.2,216.1,283.6,243.8,262.3,266.5z M1089,153l-0.4-2.6h-2.6H966.9h-1.3l-0.9,0.9l-58.2,58.2
		l-5.2,5.2h7.4h113.8c-10.8,37.9-40.3,68.5-78,80.5c-11.5,3.6-23.4,5.5-35.5,5.5c-32.7,0-63.2-13.1-85.7-37
		c-22.5-23.8-34-55-32.2-87.7c3.4-61.2,56-111.2,117.3-111.5h0.7c38.2,0,74.2,18.7,96.4,50.1l2.1,3l2.6-2.6l41.6-41.6l1.9-1.9
		l-1.7-2.1c-34.9-43.9-86.9-69.1-142.9-69.1c-89.8,0-165.5,64.3-180,152.8c-3.2,19.6-3.2,39.5,0,59.2
		c14.5,88.5,90.1,152.8,180,152.8c53.4,0,103.9-23.3,138.6-63.9C1082.3,260.5,1097.4,206.5,1089,153z M481,101.8
		c0-21.2,18-35,49.8-35c29.6,0,60.6,8.4,86.6,26.1l50.3-50.3C633.7,14.7,589.8,0,537.7,0c-83.2,0-134,48.7-134,107.5
		c0,133,203.4,90.1,203.4,151.5c0,20.7-19.6,39.2-61.4,39.2c-40.3,0-73.6-15.2-98-35.1l-50.5,50.5c33.2,30.7,80.4,51.3,145.4,51.3
		c94.8,0,141.4-48.7,141.4-113.4C683.9,119.8,481,157.4,481,101.8z"/>
</g>
</svg>
